<?xml version="1.0" encoding="UTF-8"?>
<svg width="22px" height="30px" viewBox="0 0 22 30" version="1.1" xmlns="http://www.w3.org/2000/svg" xmlns:xlink="http://www.w3.org/1999/xlink">
    <!-- Generator: Sketch 50.2 (55047) - http://www.bohemiancoding.com/sketch -->
    <title>Artboard 1</title>
    <desc>Created with Sketch.</desc>
    <defs></defs>
    <g id="Artboard-1" stroke="none" stroke-width="1" fill="none" fill-rule="evenodd">
        <polygon id="Fill-1" fill="#319360" points="0 12.6647 0 15.5657 8.465 22.8367 8.465 30.4477 13.244 28.0597 13.244 22.8367 21.709 15.5657 21.709 12.6647"></polygon>
        <g id="Group-10" transform="translate(0.000000, -0.552200)">
            <path d="M16.6574,5.8767 C18.1464,5.8577 19.3694,7.0507 19.3874,8.5397 L19.3874,8.5737 C19.3874,10.0817 18.1654,11.3047 16.6574,11.3047 C15.1494,11.3047 13.9274,10.0817 13.9274,8.5737 C13.9274,7.0847 15.1344,5.8767 16.6234,5.8767 L16.6574,5.8767 Z" id="Fill-2" fill="#DE5059"></path>
            <path d="M13.8928,0.5525 C14.7598,0.5525 15.4628,1.2555 15.4628,2.1225 C15.4628,2.9905 14.7598,3.6925 13.8928,3.6925 C13.0338,3.6745 12.3408,2.9825 12.3228,2.1225 C12.3408,1.2625 13.0338,0.5705 13.8928,0.5525" id="Fill-4" fill="#7AB999"></path>
            <path d="M9.7961,4.3074 C10.6631,4.3064 11.3671,5.0094 11.3671,5.8764 C11.3671,6.7444 10.6651,7.4474 9.7981,7.4474 L9.7961,7.4474 C8.9291,7.4474 8.2271,6.7444 8.2271,5.8764 C8.2271,5.0094 8.9301,4.3074 9.7961,4.3074" id="Fill-6" fill="#E98E94"></path>
            <path d="M3.1066,6.5603 C4.3496,6.5403 5.3746,7.5343 5.3926,8.7783 C5.4116,10.0223 4.4186,11.0463 3.1736,11.0653 C1.9306,11.0833 0.9066,10.0903 0.8876,8.8463 L0.8876,8.8123 C0.8866,7.5813 1.8756,6.5793 3.1066,6.5603" id="Fill-8" fill="#7AB999"></path>
        </g>
    </g>
</svg>