<?xml version="1.0" encoding="UTF-8"?>
<svg width="28px" height="28px" viewBox="0 0 28 28" version="1.1" xmlns="http://www.w3.org/2000/svg" xmlns:xlink="http://www.w3.org/1999/xlink">
    <!-- Generator: Sketch 50.2 (55047) - http://www.bohemiancoding.com/sketch -->
    <title>Artboard 1</title>
    <desc>Created with Sketch.</desc>
    <defs>
        <polygon id="path-1" points="0.4857 0.5089 10.976 0.5089 10.976 10.9999 0.4857 10.9999"></polygon>
        <polygon id="path-3" points="0 28 27.976 28 27.976 0 0 0"></polygon>
    </defs>
    <g id="Artboard-1" stroke="none" stroke-width="1" fill="none" fill-rule="evenodd">
        <path d="M16.2463,22.7306 C16.2463,19.1496 19.1493,16.2466 22.7303,16.2466 C23.3373,16.2466 23.9223,16.3356 24.4793,16.4926 L24.4793,7.8436 L16.6043,0.0006 L1.7483,0.0006 C0.7833,0.0006 0.0003,0.7826 0.0003,1.7486 L0.0003,26.2276 C0.0003,27.1936 0.7833,27.9766 1.7483,27.9766 L18.9303,27.9766 C17.3063,26.7976 16.2463,24.8906 16.2463,22.7306" id="Fill-1" fill="#7AB999"></path>
        <path d="M24.4543,7.8683 L18.3593,7.8683 C17.3943,7.8683 16.6113,7.0853 16.6113,6.1203 L16.6113,0.0173 L24.4543,7.8683 Z" id="Fill-3" fill="#319360"></path>
        <g id="Group-7" transform="translate(17.000000, 17.000000)">
            <mask id="mask-2" fill="white">
                <use xlink:href="#path-1"></use>
            </mask>
            <g id="Clip-6"></g>
            <path d="M5.7307,0.5089 C8.6277,0.5089 10.9767,2.8579 10.9767,5.7539 C10.9767,8.6499 8.6277,10.9999 5.7307,10.9999 C2.8347,10.9999 0.4857,8.6509 0.4857,5.7539 C0.4857,2.8579 2.8347,0.5089 5.7307,0.5089" id="Fill-5" fill="#DE5059" mask="url(#mask-2)"></path>
        </g>
        <path d="M24.4797,21.88 L23.6047,21.88 L23.6047,21.006 C23.6047,20.523 23.2137,20.132 22.7307,20.132 C22.2477,20.132 21.8567,20.523 21.8567,21.006 L21.8567,21.88 L20.9827,21.88 C20.4987,21.88 20.1077,22.271 20.1077,22.754 C20.1077,23.238 20.4987,23.629 20.9827,23.629 L21.8567,23.629 L21.8567,24.503 C21.8567,24.987 22.2477,25.377 22.7307,25.377 C23.2137,25.377 23.6047,24.987 23.6047,24.503 L23.6047,23.629 L24.4797,23.629 C24.9627,23.629 25.3537,23.238 25.3537,22.754 C25.3537,22.272 24.9627,21.88 24.4797,21.88" id="Fill-8" fill="#FFFFFF"></path>
        <mask id="mask-4" fill="white">
            <use xlink:href="#path-3"></use>
        </mask>
        <g id="Clip-11"></g>
        <path d="M13.988,13.988 L15.736,13.988 L15.736,12.239 L13.988,12.239 L13.988,13.988 Z M13.989,16.61 L15.737,16.61 L15.737,14.863 L13.989,14.863 L13.989,16.61 Z M13.989,19.233 L15.737,19.233 L15.737,17.486 L13.989,17.486 L13.989,19.233 Z M13.989,21.858 L15.737,21.858 L15.737,20.108 L13.989,20.108 L13.989,21.858 Z M11.365,13.988 L13.113,13.988 L13.113,12.239 L11.365,12.239 L11.365,13.988 Z M11.365,16.61 L13.113,16.61 L13.113,14.863 L11.365,14.863 L11.365,16.61 Z M11.365,19.233 L13.113,19.233 L13.113,17.486 L11.365,17.486 L11.365,19.233 Z M11.365,21.858 L13.113,21.858 L13.113,20.108 L11.365,20.108 L11.365,21.858 Z M8.742,13.988 L10.491,13.988 L10.491,12.239 L8.742,12.239 L8.742,13.988 Z M8.742,16.61 L10.491,16.61 L10.491,14.863 L8.742,14.863 L8.742,16.61 Z M8.742,19.233 L10.491,19.233 L10.491,17.486 L8.742,17.486 L8.742,19.233 Z M8.742,21.858 L10.491,21.858 L10.491,20.108 L8.742,20.108 L8.742,21.858 Z M6.12,13.988 L7.868,13.988 L7.868,12.239 L6.12,12.239 L6.12,13.988 Z M6.12,16.61 L7.868,16.61 L7.868,14.863 L6.12,14.863 L6.12,16.61 Z M6.12,19.233 L7.868,19.233 L7.868,17.486 L6.12,17.486 L6.12,19.233 Z M6.12,21.858 L7.868,21.858 L7.868,20.108 L6.12,20.108 L6.12,21.858 Z M16.611,16.611 L18.36,16.611 L18.36,14.863 L16.611,14.863 L16.611,16.611 Z M16.611,13.988 L18.36,13.988 L18.36,12.239 L16.611,12.239 L16.611,13.988 Z M16.611,20.627 L16.611,20.108 L16.815,20.108 C16.951,19.803 17.111,19.511 17.29,19.233 L16.612,19.233 L16.612,17.485 L18.36,17.485 L18.36,17.977 C18.631,17.728 18.923,17.501 19.234,17.301 L19.234,11.365 L5.245,11.365 L5.245,22.731 L16.247,22.731 C16.251,21.993 16.381,21.288 16.611,20.627 Z" id="Fill-10" fill="#CCE4D8" mask="url(#mask-4)"></path>
        <path d="M26.0725,22.5802 C26.0725,24.4252 24.5775,25.9212 22.7325,25.9212 C20.8875,25.9212 19.3915,24.4252 19.3915,22.5802 C19.3915,20.7352 20.8875,19.2402 22.7325,19.2402 C24.5775,19.2402 26.0725,20.7352 26.0725,22.5802" id="Fill-12" fill="#DE5059" mask="url(#mask-4)"></path>
        <polygon id="Fill-13" fill="#FFFFFF" mask="url(#mask-4)" points="24.4934 24.0645 21.1074 24.0645 21.1074 21.6945 21.8694 21.6945 22.7164 21.0165 20.4314 21.0165 20.4314 24.7415 25.1714 24.7415 25.1714 22.8455 24.4934 23.3865"></polygon>
        <path d="M21.7736,23.3946 C22.3476,22.8356 23.0266,22.3326 24.1556,22.3736 L24.1556,23.0486 L25.8476,21.6946 L24.1556,20.3396 L24.1556,21.0086 C22.9566,21.0216 21.7736,22.0676 21.7736,23.3946" id="Fill-14" fill="#FFFFFF" mask="url(#mask-4)"></path>
    </g>
</svg>