<?xml version="1.0" encoding="UTF-8"?>
<svg width="26px" height="31px" viewBox="0 0 26 31" version="1.1" xmlns="http://www.w3.org/2000/svg" xmlns:xlink="http://www.w3.org/1999/xlink">
    <!-- Generator: Sketch 50.2 (55047) - http://www.bohemiancoding.com/sketch -->
    <title>Artboard 1</title>
    <desc>Created with Sketch.</desc>
    <defs>
        <polygon id="path-1" points="0 31 25.89 31 25.89 0 0 0"></polygon>
    </defs>
    <g id="Artboard-1" stroke="none" stroke-width="1" fill="none" fill-rule="evenodd">
        <path d="M25.4854,0.0001 L0.4044,0.0001 C0.1804,0.0001 0.0004,0.1811 0.0004,0.4041 L0.0004,23.0581 C0.0004,23.2811 0.1804,23.4631 0.4044,23.4631 L25.4854,23.4631 C25.7094,23.4631 25.8894,23.2811 25.8894,23.0581 L25.8894,0.4041 C25.8894,0.1811 25.7094,0.0001 25.4854,0.0001" id="Fill-1" fill="#CCE4D8"></path>
        <path d="M25.4854,0.0001 L0.4044,0.0001 C0.1804,0.0001 0.0004,0.1811 0.0004,0.4041 L0.0004,3.6411 L25.8894,3.6411 L25.8894,0.4041 C25.8894,0.1811 25.7094,0.0001 25.4854,0.0001" id="Fill-3" fill="#319360"></path>
        <path d="M19.417,6.4151 L6.473,6.4151 C6.249,6.4151 6.068,6.5961 6.068,6.8191 L6.068,14.9101 C6.068,15.1331 6.249,15.3141 6.473,15.3141 L19.417,15.3141 C19.641,15.3141 19.822,15.1331 19.822,14.9101 L19.822,6.8191 C19.822,6.5961 19.641,6.4151 19.417,6.4151" id="Fill-5" fill="#E98E94"></path>
        <mask id="mask-2" fill="white">
            <use xlink:href="#path-1"></use>
        </mask>
        <g id="Clip-8"></g>
        <polygon id="Fill-7" fill="#FFFFFF" mask="url(#mask-2)" points="6.877 14.505 19.013 14.505 19.013 7.224 6.877 7.224"></polygon>
        <path d="M22.249,2.4268 L22.198,2.4268 C21.976,2.4268 21.794,2.2458 21.794,2.0228 C21.794,1.7988 21.976,1.6178 22.198,1.6178 L22.249,1.6178 C22.473,1.6178 22.653,1.7988 22.653,2.0228 C22.653,2.2458 22.473,2.4268 22.249,2.4268" id="Fill-9" fill="#FFFFFF" mask="url(#mask-2)"></path>
        <path d="M23.8672,2.4268 L23.8162,2.4268 C23.5932,2.4268 23.4122,2.2458 23.4122,2.0228 C23.4122,1.7988 23.5932,1.6178 23.8162,1.6178 L23.8672,1.6178 C24.0912,1.6178 24.2712,1.7988 24.2712,2.0228 C24.2712,2.2458 24.0912,2.4268 23.8672,2.4268" id="Fill-10" fill="#FFFFFF" mask="url(#mask-2)"></path>
        <path d="M20.5801,2.4268 L20.5301,2.4268 C20.3071,2.4268 20.1251,2.2458 20.1251,2.0228 C20.1251,1.7988 20.3071,1.6178 20.5301,1.6178 L20.5801,1.6178 C20.8041,1.6178 20.9851,1.7988 20.9851,2.0228 C20.9851,2.2458 20.8041,2.4268 20.5801,2.4268" id="Fill-11" fill="#FFFFFF" mask="url(#mask-2)"></path>
        <path d="M23.749,17.1202 L21.175,14.5462 L22.604,13.1152 C22.82,12.8992 22.719,12.5192 22.425,12.4392 L16.132,10.7232 C15.836,10.6422 15.555,10.9232 15.635,11.2202 L17.352,17.5132 C17.432,17.8072 17.812,17.9082 18.027,17.6922 L19.458,16.2622 L22.032,18.8372 C22.188,18.9922 22.448,18.9922 22.604,18.8372 L23.749,17.6922 C23.906,17.5342 23.906,17.2782 23.749,17.1202" id="Fill-12" fill="#DE5059" mask="url(#mask-2)"></path>
        <path d="M12.9883,30.5001 C9.2473,30.5001 6.2043,27.4561 6.2043,23.7151 C6.2043,19.9741 9.2473,16.9311 12.9883,16.9311 C16.7293,16.9311 19.7723,19.9741 19.7723,23.7151 C19.7723,27.4561 16.7293,30.5001 12.9883,30.5001" id="Fill-13" fill="#319360" mask="url(#mask-2)"></path>
        <path d="M12.9883,16.4307 C8.9713,16.4307 5.7033,19.6987 5.7033,23.7147 C5.7033,27.7327 8.9713,30.9997 12.9883,30.9997 C17.0053,30.9997 20.2733,27.7327 20.2733,23.7147 C20.2733,19.6987 17.0053,16.4307 12.9883,16.4307 M12.9883,17.4307 C16.4593,17.4307 19.2733,20.2437 19.2733,23.7147 C19.2733,27.1867 16.4593,29.9997 12.9883,29.9997 C9.5173,29.9997 6.7033,27.1867 6.7033,23.7147 C6.7033,20.2437 9.5173,17.4307 12.9883,17.4307" id="Fill-14" fill="#FFFFFF" mask="url(#mask-2)"></path>
        <path d="M12.9883,27.2344 C12.8493,27.2344 12.7373,27.1224 12.7373,26.9834 L12.7373,20.6984 C12.7373,20.5594 12.8493,20.4474 12.9883,20.4474 C13.1273,20.4474 13.2393,20.5594 13.2393,20.6984 L13.2393,26.9834 C13.2393,27.1224 13.1273,27.2344 12.9883,27.2344" id="Fill-15" fill="#FFFFFF" mask="url(#mask-2)"></path>
        <path d="M16.1309,23.9669 L9.8459,23.9669 C9.7069,23.9669 9.5949,23.8549 9.5949,23.7149 C9.5949,23.5759 9.7069,23.4639 9.8459,23.4639 L16.1309,23.4639 C16.2699,23.4639 16.3819,23.5759 16.3819,23.7149 C16.3819,23.8549 16.2699,23.9669 16.1309,23.9669" id="Fill-16" fill="#FFFFFF" mask="url(#mask-2)"></path>
    </g>
</svg>